<?xml version="1.0" encoding="utf-8"?>
<!DOCTYPE svg PUBLIC "-//W3C//DTD SVG 1.0//EN" "http://www.w3.org/TR/2001/REC-SVG-20010904/DTD/svg10.dtd">
<svg version="1.0" xmlns="http://www.w3.org/2000/svg" width="512px" height="512px" viewBox="0 0 512 512" preserveAspectRatio="xMidYMid meet">
 <g fill="#000000">
  <path d="M234.5 489.4 c-54.7 -5.6 -102.4 -27.3 -140.3 -63.9 -16.4 -15.7 -33.9 -38.7 -43.2 -56.7 l-3.4 -6.6 -12.1 -0.4 c-13.9 -0.4 -18.5 -2 -25.5 -9.1 -5.4 -5.3 -7.7 -9.9 -9 -17.8 -1.4 -8.7 -1.4 -149.1 0 -157.8 1.3 -7.9 3.6 -12.5 9 -17.8 7 -7.1 11.6 -8.7 25.5 -9.1 l12.1 -0.4 3.4 -6.6 c1.9 -3.7 6.4 -11.2 10.1 -16.7 39 -59.2 100.2 -96.2 171.5 -103.6 14.5 -1.4 44.8 -0.7 58.9 1.6 60.4 9.6 114.2 41.4 149.9 88.5 7.6 10 17.2 25 20.8 32.4 l2.1 4.4 12.1 0.4 c13.8 0.4 18.5 2 25.5 8.8 5.2 5.1 7.8 10.2 9.1 18.1 1.4 8.7 1.4 149.1 0 157.8 -1.3 7.9 -3.9 13 -9.1 18.1 -7 6.8 -11.7 8.4 -25.5 8.8 l-12.1 0.4 -2.1 4.4 c-10.3 21.2 -32.7 49.3 -53.5 67 -33.3 28.5 -73.6 46.9 -117.8 53.9 -10 1.6 -47.2 2.8 -56.4 1.9z m11.5 -52.5 l0 -32.2 -7.7 0.7 c-12.3 1 -25.7 3.5 -39.2 7.2 -6.9 1.9 -12.7 3.6 -12.9 3.9 -0.3 0.2 2.5 4.8 6.1 10.2 11.3 17 24.4 29.6 38.2 36.6 5.3 2.6 12.5 5.4 14.8 5.6 0.4 0.1 0.7 -14.4 0.7 -32z m34.5 26.6 c15.1 -7.3 29.7 -21.3 40.6 -39 l5 -8 -3.1 -1.3 c-8.6 -3.5 -33.4 -8.6 -48.2 -9.8 l-8.8 -0.7 0 32.2 0 32.1 2.8 -0.6 c1.5 -0.3 6.8 -2.5 11.7 -4.9z m-93.2 -10.2 c-6.2 -7.2 -11.8 -14.9 -16.8 -23 l-3.8 -6.3 -9.6 5.1 c-5.3 2.7 -10.7 5.8 -12 6.8 l-2.4 1.8 6.4 3.6 c13.8 7.7 41.4 19.4 42.8 18.1 0.2 -0.2 -1.9 -2.9 -4.6 -6.1z m166.1 -7.3 c8.2 -4.1 14.9 -7.9 14.9 -8.5 0 -0.5 -4.7 -3.6 -10.4 -6.7 -9.7 -5.5 -13.9 -6.9 -13.9 -5 0 1.7 -13.9 21.8 -18.9 27.4 -2.8 3.1 -5.1 5.9 -5.1 6.2 0 1.4 20.1 -6.6 33.4 -13.4z m-220.2 -26.2 c4.6 -2.9 11.9 -7.1 16.1 -9.3 4.2 -2.2 7.7 -4.5 7.7 -5 0 -0.6 -1.8 -5.6 -4.1 -11 -2.2 -5.5 -5.5 -14.9 -7.4 -21 l-3.3 -11 -35.6 -0.3 c-19.6 -0.1 -35.6 0.2 -35.6 0.6 0 0.5 3.1 5.6 6.9 11.3 9.2 13.9 23.8 30.7 36.3 41.8 5.7 5 10.4 9.1 10.4 9.1 0.1 0 4 -2.4 8.6 -5.2z m271.1 -9.7 c4.9 -4.7 12.5 -13 17 -18.5 7.7 -9.6 19.7 -27.2 19.7 -28.8 0 -0.5 -16 -0.7 -35.6 -0.6 l-35.6 0.3 -3 10 c-1.6 5.4 -4.9 14.9 -7.4 21.1 -2.4 6.2 -4.4 11.4 -4.4 11.7 0 0.3 4.4 2.9 9.8 5.7 5.3 2.9 12.6 7.1 16.2 9.5 l6.5 4.2 4 -3.1 c2.1 -1.7 7.9 -6.9 12.8 -11.5z m-212.9 -16.7 c14.2 -4.1 30.5 -7.1 44.1 -8.1 l10 -0.8 0.3 -11.2 0.3 -11.3 -41.5 0 -41.4 0 1.8 5.8 c2.3 7.4 5.1 15.1 8.5 23.5 2.2 5.3 3.1 6.7 4.4 6.2 0.9 -0.4 6.9 -2.2 13.5 -4.1z m147 -0.6 c2.6 -6 10.6 -28.4 10.6 -29.9 0 -0.5 -16.5 -0.9 -41.5 -0.9 l-41.6 0 0.3 11.3 0.3 11.2 5 0.3 c15.5 0.8 43 6.2 56.5 11.1 3 1.1 6.1 2 6.8 2 0.7 0.1 2.3 -2.3 3.6 -5.1z m147.4 -52.8 c1.8 -1.1 3.7 -3.2 4.2 -4.6 1.3 -3.4 1.3 -155.4 0 -158.8 -0.5 -1.4 -2.4 -3.5 -4.2 -4.6 -3.3 -2 -5.2 -2 -229.8 -2 -224.6 0 -226.5 0 -229.8 2 -1.8 1.1 -3.7 3.2 -4.2 4.6 -1.3 3.4 -1.3 155.4 0 158.8 0.5 1.4 2.4 3.5 4.2 4.6 3.3 2 5.2 2 229.8 2 224.6 0 226.5 0 229.8 -2z m-343.4 -191.2 c3.6 -12.4 7.6 -24.2 10.7 -32.2 2.1 -5.4 3.9 -10.1 3.9 -10.5 0 -0.4 -3 -2.2 -6.7 -4 -3.7 -1.8 -10.9 -5.9 -16.1 -9.2 l-9.5 -5.9 -4.6 3.7 c-8.6 7.1 -19.4 17.8 -27.3 27.3 -7.6 9 -21.8 29.3 -21.8 31.2 0 0.4 16 0.8 35.5 0.8 27.6 0 35.6 -0.3 35.9 -1.2z m103.4 -10 l-0.3 -11.3 -9.2 -0.7 c-16.1 -1.2 -38.2 -5.8 -52.7 -10.8 -3.3 -1.1 -6.3 -2 -6.8 -2 -0.5 0 -1.9 2.4 -3.2 5.3 -2.6 5.9 -10.6 28.3 -10.6 29.8 0 0.5 16.5 0.9 41.5 0.9 l41.6 0 -0.3 -11.2z m100.8 4 c-1.3 -4 -4.2 -12.2 -6.5 -18.1 -3.5 -8.8 -4.6 -10.7 -6 -10.2 -14.8 5.7 -44.2 11.6 -63.6 12.8 l-4 0.2 -0.3 11.3 -0.3 11.2 41.5 0 41.4 0 -2.2 -7.2z m94.4 6.4 c0 -0.5 -3.1 -5.6 -6.9 -11.3 -9.1 -13.9 -24.3 -31.3 -36.7 -42 l-10.1 -8.8 -13.2 7.8 c-7.2 4.3 -14.5 8.4 -16.1 9.1 -1.7 0.7 -3 1.8 -3 2.4 0 0.7 1.8 5.6 4 10.9 2.2 5.4 5.4 14.4 7.1 20 1.7 5.6 3.2 10.8 3.4 11.5 0.3 0.9 8.4 1.2 36 1.2 19.5 0 35.5 -0.4 35.5 -0.8z m-195 -74.2 l0 -32 -2.7 0.6 c-5.2 1.1 -18.8 8.1 -24.9 12.8 -10.5 7.9 -22.1 21.5 -29.8 34.8 l-2.7 4.7 6.8 2 c16.6 4.9 37.2 8.8 48.6 9 l4.7 0.1 0 -32z m37.2 30.5 c13.7 -1.8 40.4 -8.1 42.7 -10.1 0.2 -0.2 -2.6 -4.7 -6.2 -10.1 -7.7 -11.6 -17.4 -22.4 -26 -28.9 -6.2 -4.7 -19.8 -11.7 -24.9 -12.8 l-2.8 -0.6 0 32 0 32 2.9 0 c1.7 0 8.1 -0.7 14.3 -1.5z m84.7 -30 c1.1 -1.1 0.3 -1.9 -5 -4.8 -13.8 -7.8 -42.9 -20 -42.9 -18.1 0 0.4 2.2 3.2 4.8 6.3 6.1 7 11.7 14.8 16.7 22.9 l3.8 6.2 10.6 -5.6 c5.8 -3 11.2 -6.1 12 -6.9z m-199.9 10.7 c0 -1.6 11.1 -17.6 17.7 -25.4 3.6 -4.3 6 -7.8 5.5 -7.8 -5.3 0 -47.5 19.1 -47.5 21.5 0.1 0.6 4.7 3.6 10.4 6.8 9.7 5.4 13.9 6.8 13.9 4.9z"/>
  <path d="M259.4 315.9 l-2.9 -3 0 -40.9 0 -41 3.3 -3.2 3.2 -3.3 15.8 0 c14.8 0 16 0.2 21.2 2.6 7.8 3.6 12.4 8 16 15.1 2.6 5.2 3 7.2 3 13.8 0 6.6 -0.4 8.6 -3 13.8 -5.7 11.3 -14.6 16.7 -29.7 17.8 l-9.3 0.7 0 11.4 c0 15.7 -2 19.3 -10.7 19.3 -3.1 0 -4.6 -0.7 -6.9 -3.1z m36.2 -52.3 c2.8 -2.8 3.4 -4.2 3.4 -7.6 0 -3.4 -0.6 -4.8 -3.4 -7.6 -3.3 -3.3 -3.7 -3.4 -11 -3.4 l-7.6 0 0 11 0 11 7.6 0 c7.3 0 7.7 -0.1 11 -3.4z"/>
  <path d="M387.7 305.5 c-1.4 -1.4 -2.8 -3.7 -3.1 -5 -0.4 -1.5 3.5 -19 10.4 -46.7 10.3 -41.4 11.2 -44.5 14 -47 5.7 -5.2 14.6 -2.6 16.4 4.7 0.4 1.5 -3.5 19 -10.4 46.7 -10.3 41.4 -11.2 44.5 -14 47.1 -4.1 3.7 -9.7 3.7 -13.3 0.2z"/>
  <path d="M430.7 306 c-4.8 -3.8 -4.6 -5.6 6.8 -51 5.8 -23.4 11.1 -43.8 11.7 -45.3 3.7 -9.5 18.8 -6.5 18.8 3.7 0 2 -4.8 22.9 -10.7 46.4 -9.4 37.8 -11 43 -13.4 45.5 -3.4 3.4 -9.3 3.7 -13.2 0.7z"/>
  <path d="M46.8 295.1 l-3.3 -2.9 -0.3 -45.3 c-0.2 -32.9 0.1 -46.1 0.9 -48.2 1.6 -3.9 4.6 -5.7 9.4 -5.7 3.3 0 4.7 0.6 7 3 2.9 3 3 3.3 3.3 16.4 l0.4 13.3 7.8 -0.5 c11.3 -0.6 16.8 1.4 24.5 9.2 8.7 8.7 9.5 11.8 9.5 36.2 0 20.9 -0.5 23.6 -5.1 26 -3.4 1.7 -6 1.8 -9.4 0.2 -4.9 -2.2 -5.5 -5 -5.5 -25.1 0 -17.5 -0.1 -18.6 -2.3 -21.8 -3.9 -5.9 -12.4 -6.5 -17.3 -1.2 -2.3 2.5 -2.4 3 -2.4 20.2 0 9.7 -0.5 19.3 -1 21.3 -2.2 7.8 -10.3 10.2 -16.2 4.9z"/>
  <path d="M149.7 296.6 c-5.1 -1.8 -11.4 -6.3 -14.3 -10.1 -5.3 -7 -6.6 -11.9 -7.2 -27 l-0.5 -14.3 -7.5 -0.4 c-6.6 -0.3 -7.7 -0.6 -9.8 -3.1 -3.5 -4.1 -4 -7.5 -1.8 -11.6 2.2 -4.2 6.3 -6 14 -6 l5.2 -0.1 0.4 -12.5 c0.4 -12.1 0.5 -12.5 3.3 -15.5 2.2 -2.3 3.7 -3 6.8 -3 8.7 0 10.7 3.6 10.7 19.5 l0 11.5 4.8 0 c10.3 0 16.2 3.9 16.2 10.6 0 2.3 -0.9 4.4 -2.9 6.6 -2.7 3 -3.4 3.3 -10.5 3.6 l-7.6 0.4 0 11.8 c0 6.5 0.4 13 1 14.4 1.1 3 6.5 6.6 9.8 6.6 7.4 0 12.6 8.6 9.2 15.1 -2.5 4.6 -11.6 6.2 -19.3 3.5z"/>
  <path d="M224.9 296.6 c-8.6 -3.1 -15.5 -9.4 -19.3 -17.5 -1.7 -3.8 -2.1 -7.2 -2.4 -19.2 l-0.4 -14.7 -7.5 -0.4 c-7 -0.3 -7.7 -0.6 -10.4 -3.6 -2 -2.2 -2.9 -4.3 -2.9 -6.6 0 -6.7 5.9 -10.6 16.3 -10.6 l4.7 0 0 -11.5 c0 -15.9 2 -19.5 10.7 -19.5 3.1 0 4.6 0.7 6.8 3 2.8 3 2.9 3.4 3.3 15.5 l0.4 12.5 4.7 0 c2.5 0 6.3 0.5 8.4 1.1 7.5 2.1 9.8 11.2 4.2 16.8 -2.1 2.2 -3.6 2.6 -10 2.9 l-7.5 0.4 0 12.9 c0 12.6 0 12.9 2.8 15.9 1.9 2.1 4.1 3.3 7.5 3.9 8.1 1.5 12.4 7.7 9.7 14.2 -2.3 5.5 -10.8 7.5 -19.1 4.5z"/>
  <path d="M348.4 287 c-3.3 -1.3 -6.4 -5.9 -6.4 -9.6 0 -4.6 4.3 -9.3 9.2 -10.1 3.3 -0.5 4.1 -0.2 7.3 3 5.6 5.6 4.2 13.3 -3.2 16.3 -3.7 1.6 -4 1.6 -6.9 0.4z"/>
  <path d="M348.4 244.1 c-1.2 -0.5 -3.1 -2.2 -4.4 -3.8 -4.5 -5.7 -0.1 -15.3 7 -15.3 6.7 0 11.8 5.9 10.5 11.9 -1.2 5.5 -8.1 9.3 -13.1 7.2z"/>
 </g>
</svg>