<svg id="Layer_1" data-name="Layer 1" xmlns="http://www.w3.org/2000/svg" viewBox="0 0 1000 1000"><defs><style>.cls-1{fill:#00a0b0;fill-rule:evenodd;}</style></defs><path class="cls-1" d="M153.6,435.18v25.74c-12.24-4.28-25.64-6.78-36.33-6.78-13.19,0-20.53,4-20.53,11.24,0,4.61,3.22,7.66,12.43,11.8L134,488.3c19.83,8.91,29.82,21.91,29.82,38.8,0,26.06-22.56,42.5-58.32,42.5-13,0-28.13-1.86-44.11-5.48v-26.6c15.84,4.31,30.36,6.61,41.65,6.61,14.78,0,22.7-4.11,22.7-11.79,0-4.61-3.1-8-10.18-11.17L88.4,509.09C68.29,500.12,59,488,59,470.82c0-24.68,21.74-40.42,55.85-40.42a174,174,0,0,1,38.74,4.78Zm29.48-2.08h40.08V566.9H183.08Zm170.42,0v24.51H293v30.18h52.86V510H293v31.29h61.3V566.9H254V433.1Zm189.37,0V566.9H504.08V478.83l-38,89.12H441.57l-37.73-89.12V566.9H377.06V433.1H426l34.6,81.39L495,433.1Zm130.43,0v24.51H612.7v30.18h52.84V510H612.7v31.29H674V566.9H573.65V433.1Zm141.19,0V566.9H771.71l-48.16-85.82V566.9H696.76V433.1h43.91l47.13,84.68V433.1Zm116.33,2.08v25.74c-12.15-4.25-25.64-6.78-36.13-6.78-13.39,0-20.73,3.95-20.73,11.2,0,4.72,3,7.54,12.53,11.85l24.67,11.12c20,9,29.84,21.89,29.84,39,0,25.93-22.57,42.33-58.25,42.33-13.07,0-28.21-1.87-44.17-5.48v-26.6c15.82,4.3,30.3,6.61,41.52,6.61,14.68,0,22.82-4.11,22.82-11.55,0-4.92-2.85-8.09-10.28-11.41l-27-12.08c-20.24-9-29.41-21-29.41-38.27,0-24.66,21.75-40.41,55.79-40.41a173,173,0,0,1,38.81,4.76Z"/></svg>