<svg xmlns="http://www.w3.org/2000/svg" viewBox="0 0 2000 340"><path fill="#d91433" d="M1688.5 83.5c-17.33 17.65-26.08 45.6-28.2 70.26-2.7 31.45.06 65.74 17.86 92.61 13.83 20.88 34.65 33.21 59.86 36.12 58.67 6.75 99.45-21.05 108.94-80.22a.61.6 4.4 0 1 .6-.51l101.7-.01a.57.57 0 0 1 .56.66c-12.22 74.37-67.15 117.13-139.25 126.52-62.38 8.13-130.9 1.62-186.46-30.2q-35.5-20.33-49.88-58.72c-10.98-29.35-13.19-63.12-9.9-93 5.45-49.52 34.66-94.15 80.98-115.08 36.96-16.69 79.18-21.01 119.21-19.83 88.04 2.58 168.46 29.82 185.33 128.38a.62.61-4.7 0 1-.61.71l-101 .38a1.62 1.61-5.9 0 1-1.58-1.28c-4.43-20.73-15.73-47.8-31.94-62.09-19.46-17.15-52.07-19.55-76.48-16.95-18.7 1.99-36.4 8.66-49.74 22.25ZM1368.48 268.51c23.64-7.67 44.22-25.99 44.24-52.58q.05-97.18.03-194.42 0-.51.51-.51h86.43q.56 0 .56.55.02 98.62-.05 197.19c-.02 23.75-5.68 42.47-21.76 60.05-25.05 27.4-59.79 41.64-95.67 48.26-36.73 6.76-69.71 6.29-106.53.29-51.77-8.44-120.34-40.22-120.43-102.78q-.13-101.53-.03-203.07 0-.49.49-.49h86.47q.51 0 .51.51 0 96.88.01 193.73c0 20.97 10.9 35.82 28.53 45.74 29.02 16.32 65.68 17.59 96.69 7.53ZM137.94 132.5h176.87a.44.44 0 0 1 .44.44v56.37a.44.44 0 0 1-.44.44H137.94a.44.44 0 0 0-.44.44v131.87a.44.44 0 0 1-.44.44H50.44a.44.44 0 0 1-.44-.44V21.44a.44.44 0 0 1 .44-.44h294.87a.44.44 0 0 1 .44.44v59.37a.44.44 0 0 1-.44.44H137.94a.44.44 0 0 0-.44.44v50.37a.44.44 0 0 0 .44.44ZM425.06 322.5h-86.71a.33.33 0 0 1-.3-.46L471.68 21.2a.33.33 0 0 1 .3-.2h87.13a.33.33 0 0 1 .3.2l134.11 300.84a.33.33 0 0 1-.3.46h-86.79a.33.33 0 0 1-.31-.2l-25.42-59.85a.33.33 0 0 0-.31-.2H451.08a.33.33 0 0 0-.31.2l-25.4 59.85a.33.33 0 0 1-.31.2Zm46.88-109.11a.31.31 0 0 0 .29.44l87-.16a.31.31 0 0 0 .28-.43l-43.67-101.37a.31.31 0 0 0-.57.01l-43.33 101.51ZM840.75 130.21v191.98a.31.31 0 0 1-.31.31h-83.63a.31.31 0 0 1-.31-.31V21.31a.31.31 0 0 1 .31-.31h83.83a.31.31 0 0 1 .24.11l168.07 204.21a.31.31 0 0 0 .55-.19V21.31a.31.31 0 0 1 .31-.31h83.63a.31.31 0 0 1 .31.31v300.88a.31.31 0 0 1-.31.31h-96.03a.31.31 0 0 1-.24-.11L841.3 130.01a.31.31 0 0 0-.55.2Z"/></svg>