<?xml version="1.0" encoding="UTF-8" standalone="no"?>
<svg
   xmlns:dc="http://purl.org/dc/elements/1.1/"
   xmlns:cc="http://creativecommons.org/ns#"
   xmlns:rdf="http://www.w3.org/1999/02/22-rdf-syntax-ns#"
   xmlns:svg="http://www.w3.org/2000/svg"
   xmlns="http://www.w3.org/2000/svg"
   xmlns:sodipodi="http://sodipodi.sourceforge.net/DTD/sodipodi-0.dtd"
   xmlns:inkscape="http://www.inkscape.org/namespaces/inkscape"
   version="1.0"
   width="825.82507"
   height="195.62505"
   viewBox="0 0 660.66006 156.50003"
   preserveAspectRatio="xMidYMid meet"
   id="svg2"
   inkscape:version="0.48.5 r10040"
   sodipodi:docname="Okuma_logo.svg">
  <defs
     id="defs28" />
  <sodipodi:namedview
     pagecolor="#ffffff"
     bordercolor="#666666"
     borderopacity="1"
     objecttolerance="10"
     gridtolerance="10"
     guidetolerance="10"
     inkscape:pageopacity="0"
     inkscape:pageshadow="2"
     inkscape:window-width="1440"
     inkscape:window-height="848"
     id="namedview26"
     showgrid="false"
     fit-margin-top="5"
     fit-margin-bottom="5"
     fit-margin-right="5"
     fit-margin-left="5"
     inkscape:zoom="1"
     inkscape:cx="466.14103"
     inkscape:cy="40.229363"
     inkscape:window-x="-8"
     inkscape:window-y="-8"
     inkscape:window-maximized="1"
     inkscape:current-layer="g6" />
  <metadata
     id="metadata4">
Created by potrace 1.11, written by Peter Selinger 2001-2013
<rdf:RDF>
  <cc:Work
     rdf:about="">
    <dc:format>image/svg+xml</dc:format>
    <dc:type
       rdf:resource="http://purl.org/dc/dcmitype/StillImage" />
    <dc:title></dc:title>
  </cc:Work>
</rdf:RDF>
</metadata>
  <g
     transform="matrix(0.04851357,0,0,-0.04851357,0.27146627,156.33261)"
     id="g6"
     style="fill:#000000;stroke:none">
    <path
       d="m 973,2043 c 3,-1084 3,-1099 25,-1197 92,-420 283,-657 593,-737 76,-20 117,-22 427,-26 l 342,-4 0,23 c -1,13 -20,151 -43,308 l -43,285 -325,6 c -347,6 -371,9 -462,63 -100,58 -200,202 -241,346 -43,152 -46,212 -46,1143 l 0,887 -115,0 -116,0 4,-1097 z"
       id="path8"
       style="fill:#005eb8;fill-opacity:1"
       inkscape:connector-curvature="0" />
    <path
       d="m 1252,2203 3,-938 27,-98 c 15,-54 39,-124 53,-155 27,-58 99,-162 114,-162 4,0 14,39 21,88 11,68 15,312 17,1145 l 4,1057 -121,0 -121,0 3,-937 z"
       id="path10"
       style="fill:#005eb8;fill-opacity:1"
       inkscape:connector-curvature="0" />
    <path
       d="m 3405,2351 c -367,-36 -659,-201 -810,-458 -86,-147 -120,-298 -112,-497 9,-234 73,-394 221,-552 244,-264 683,-379 1109,-293 343,69 613,278 726,561 83,207 79,491 -10,693 -143,327 -489,530 -934,549 -60,2 -146,1 -190,-3 z m 265,-402 c 256,-59 432,-323 392,-586 -31,-203 -175,-368 -372,-427 -73,-22 -227,-22 -300,0 -230,68 -380,268 -380,507 0,228 163,443 381,501 63,17 215,20 279,5 z"
       id="path12"
       inkscape:connector-curvature="0" />
    <path
       d="m 4800,1465 0,-875 273,2 272,3 3,873 2,872 -275,0 -275,0 0,-875 z"
       id="path14"
       inkscape:connector-curvature="0" />
    <path
       d="m 5679,1919 c -156,-231 -283,-425 -281,-430 1,-5 136,-209 299,-454 l 296,-445 329,0 c 180,0 328,2 328,5 0,2 -148,197 -328,432 -181,235 -335,438 -342,449 -12,20 8,51 286,429 164,225 303,414 307,422 7,11 -45,13 -301,13 l -309,0 -284,-421 z"
       id="path16"
       inkscape:connector-curvature="0" />
    <path
       d="m 6802,1723 c 4,-595 5,-621 25,-695 77,-274 258,-419 593,-474 130,-22 357,-28 499,-15 403,40 622,187 708,477 16,53 18,123 21,692 l 3,632 -291,0 -290,0 0,-594 0,-594 -33,-63 c -59,-115 -166,-174 -312,-173 -144,2 -265,73 -316,186 l -24,53 -2,590 -3,590 -290,3 -291,2 3,-617 z"
       id="path18"
       inkscape:connector-curvature="0" />
    <path
       d="m 8950,1465 0,-875 220,0 220,0 1,618 c 1,421 4,609 11,592 6,-14 92,-290 192,-615 l 181,-590 237,-3 236,-2 11,32 c 15,50 147,475 261,843 57,182 106,337 111,345 5,8 9,-263 9,-602 l 0,-618 220,0 220,0 0,875 0,875 -387,-2 -388,-3 -144,-508 c -79,-279 -146,-506 -148,-504 -3,4 -293,1006 -293,1014 0,2 -173,3 -385,3 l -385,0 0,-875 z"
       id="path20"
       inkscape:connector-curvature="0" />
    <path
       d="m 12033,2328 c -11,-16 -813,-1722 -813,-1731 0,-4 132,-7 294,-7 l 294,0 95,242 c 53,134 101,255 106,271 l 11,27 357,-2 356,-3 49,-125 c 27,-69 74,-189 105,-268 l 56,-142 293,0 c 162,0 294,3 294,6 0,4 -47,106 -105,228 -57,121 -241,511 -409,866 l -304,645 -335,3 c -260,2 -336,-1 -344,-10 z m 456,-574 c 55,-143 101,-263 101,-267 0,-4 -97,-7 -216,-7 -119,0 -214,4 -212,9 99,259 214,538 219,533 3,-4 52,-124 108,-268 z"
       id="path22"
       inkscape:connector-curvature="0" />
    <path
       d="M 895,749 C 804,706 751,700 446,700 L 164,700 119,398 C 94,231 75,92 77,88 c 5,-9 594,-7 683,3 148,16 331,98 408,181 l 23,26 -41,53 c -54,71 -133,234 -161,334 -12,44 -25,83 -28,86 -3,4 -33,-6 -66,-22 z"
       id="path24"
       style="fill:#005eb8;fill-opacity:1"
       inkscape:connector-curvature="0" />
  </g>
</svg>
